<svg version="1.1" id="Layer_1" xmlns="http://www.w3.org/2000/svg" xmlns:xlink="http://www.w3.org/1999/xlink" x="0px" y="0px"
	 width="100%" viewBox="0 0 500 500" enable-background="new 0 0 500 500" xml:space="preserve">
<path fill="#000000" opacity="1.000000" stroke="none" 
	d="
M322.000000,501.000000 
	C214.666687,501.000000 107.833382,501.000000 1.000057,501.000000 
	C1.000038,334.333405 1.000038,167.666794 1.000019,1.000147 
	C167.666565,1.000098 334.333130,1.000098 500.999756,1.000049 
	C500.999847,167.666519 500.999847,334.333038 500.999939,500.999786 
	C441.500000,501.000000 382.000000,501.000000 322.000000,501.000000 
M215.008865,181.014694 
	C215.008865,181.014694 214.995560,180.950882 214.418518,181.180313 
	C214.266632,182.136932 214.114761,183.093567 213.993637,184.001816 
	C213.993637,184.001816 213.938614,184.017899 214.421432,184.743454 
	C219.837204,184.743454 225.252975,184.743454 230.830200,184.743454 
	C230.830200,169.169388 230.830200,154.050415 231.180145,138.278458 
	C231.671616,137.086105 232.297287,135.930359 232.633987,134.695786 
	C236.264862,121.382530 255.225647,116.121231 264.525208,127.174683 
	C267.364868,130.549881 268.981903,134.953720 271.031921,139.840500 
	C271.031921,154.812805 271.031921,169.785110 271.031921,185.504486 
	C274.567749,184.907608 277.374054,184.433884 280.869507,183.984253 
	C281.910950,183.704315 282.952423,183.424377 284.844360,183.038712 
	C286.280426,182.972641 287.716461,182.906555 289.479797,182.952591 
	C289.479797,182.952591 289.825592,182.961197 290.228821,183.565094 
	C291.167542,183.731293 292.106232,183.897491 293.021973,183.980301 
	C293.021973,183.980301 292.938568,184.003204 293.473389,184.686295 
	C301.674072,184.736572 309.874786,184.786865 318.435791,184.960464 
	C318.435791,184.960464 318.816254,184.977661 319.244568,185.615814 
	C320.495728,185.792847 321.746918,185.969864 323.337555,186.724121 
	C332.099487,192.241730 336.139008,200.144272 334.610870,207.310776 
	C339.598236,210.489304 344.272858,213.468475 349.785828,216.981949 
	C350.168945,211.773499 351.112549,206.161133 350.889771,200.595490 
	C350.269897,185.110138 335.090393,169.094376 318.619965,168.290115 
	C308.666016,168.252228 298.712097,168.214340 287.948578,167.944229 
	C287.636353,166.425476 287.070648,164.909424 287.054321,163.387497 
	C286.966888,155.242599 286.917145,147.094666 287.045380,138.950806 
	C287.186340,130.000809 283.112152,122.651985 277.553040,116.382675 
	C271.353943,109.391617 262.662628,106.085114 253.564484,105.170570 
	C243.353821,104.144196 234.508286,107.591576 226.521606,114.562386 
	C219.465714,120.720825 212.320297,135.794617 216.136871,146.428406 
	C219.797058,156.626526 220.933762,167.243713 216.515259,178.121979 
	C216.418289,178.492065 216.321320,178.862167 216.079269,179.547150 
	C216.079269,179.547150 216.038025,179.891388 215.539444,180.122101 
	C215.340881,180.420441 215.142319,180.718781 215.008865,181.014694 
M291.892334,213.986359 
	C293.494629,213.779510 295.373657,212.922302 296.655853,213.467804 
	C307.768463,218.195618 319.728180,217.335297 331.299194,218.909805 
	C338.255005,219.856293 340.887299,222.919754 338.524323,229.769836 
	C335.317657,239.065613 330.933777,247.932205 323.657257,254.750961 
	C316.548035,261.412933 308.499054,264.499115 298.761810,259.505981 
	C288.444946,254.215652 281.611725,245.651764 275.671265,236.207199 
	C271.531891,229.626205 268.185120,222.534378 263.881317,216.072342 
	C258.927185,208.633881 252.041489,205.072845 242.635880,206.796417 
	C235.169846,208.164566 227.285065,209.179062 220.444870,204.834305 
	C216.382706,202.254074 213.132111,198.373642 209.596024,194.994690 
	C206.708923,192.235855 210.699036,190.752716 210.915421,188.554840 
	C210.947952,188.224380 211.075699,187.802429 210.927902,187.569962 
	C207.904587,182.814438 211.163727,179.784286 213.725235,176.362076 
	C214.852142,174.856491 215.667374,172.712326 215.676468,170.853439 
	C215.701004,165.835709 215.761307,160.710953 214.822144,155.817764 
	C212.797882,145.271088 211.241257,134.070465 197.581009,131.675217 
	C197.002243,131.573715 196.530762,130.895309 195.995712,130.504227 
	C191.769424,127.415260 188.126633,127.450645 184.896179,130.781479 
	C181.558044,134.223328 183.282135,137.730011 185.515839,140.645706 
	C188.267929,144.238068 192.151947,143.271423 195.490616,141.547058 
	C200.513351,138.952896 202.297409,139.173431 204.636444,144.347855 
	C207.882263,151.528275 209.132736,159.105515 209.109863,167.051270 
	C209.091644,173.380890 205.508606,177.023041 200.729065,179.429382 
	C195.767593,181.927368 189.394638,183.269333 185.243149,179.218048 
	C179.416718,173.532227 174.411789,166.733887 170.245911,159.705765 
	C167.112518,154.419525 168.547134,152.771942 174.491440,150.693466 
	C178.414124,149.321838 180.589615,146.181625 180.121735,142.313690 
	C179.783859,139.520721 177.984360,136.893295 174.098251,136.955719 
	C169.575562,137.028381 167.041336,139.098068 166.024506,143.385010 
	C165.685059,144.816116 165.442657,146.424713 164.616821,147.560028 
	C160.350281,153.425369 161.951630,159.287872 164.688126,164.953094 
	C166.401428,168.500076 168.537613,171.964294 171.073898,174.967499 
	C176.723038,181.656555 182.125137,188.896652 192.547913,188.207565 
	C193.982849,188.112686 195.824188,190.014587 197.029755,191.385651 
	C200.523468,195.358917 203.685303,199.623306 207.164429,203.610229 
	C216.421890,214.218842 228.718918,215.656876 241.399536,213.480331 
	C249.371124,212.112061 254.602890,214.732391 258.872864,220.733185 
	C260.492798,223.009705 261.716248,225.580933 263.008911,228.075623 
	C269.933960,241.439987 278.091949,253.776184 290.433472,262.928192 
	C300.228943,270.192169 314.250885,270.667358 323.763336,263.448456 
	C334.452942,255.336182 341.507416,244.228607 344.659973,231.645828 
	C348.093506,217.941757 344.769501,214.751068 332.504425,212.177628 
	C327.688446,211.167145 322.594727,211.563904 317.675873,210.938934 
	C311.755859,210.186768 305.887360,209.028992 299.992310,208.046112 
	C301.917023,198.628799 300.397095,193.144653 295.563751,189.809875 
	C288.168304,184.707336 281.709534,185.989807 274.367615,194.391846 
	C274.240051,198.309341 274.112488,202.226822 274.052246,206.564789 
	C274.052246,206.564789 274.153564,206.978394 274.197113,207.501877 
	C274.456970,207.728180 274.716827,207.954468 275.168579,208.566254 
	C275.350281,208.807388 275.589264,208.957047 276.219849,209.589737 
	C277.142242,210.434799 278.064636,211.279846 279.170959,212.519043 
	C279.346405,212.764679 279.578461,212.931656 280.125641,213.449905 
	C280.423248,213.570541 280.720825,213.691162 281.651886,213.911591 
	C282.078094,213.944763 282.504333,213.977936 283.484009,214.581345 
	C286.034454,214.399567 288.584869,214.217773 291.892334,213.986359 
M231.836472,274.243378 
	C231.558762,272.138123 231.053177,270.034241 231.040771,267.927429 
	C230.966721,255.360962 231.046829,242.793549 230.960129,230.227249 
	C230.948471,228.539200 230.288254,226.855621 229.005142,225.066757 
	C215.682251,225.043640 202.358047,225.129501 189.036819,224.968384 
	C174.122833,224.788025 163.952042,212.549957 168.239471,199.389084 
	C169.739456,194.784698 173.358292,190.870575 175.997482,186.660492 
	C173.034790,183.203705 169.641571,179.244568 166.263718,175.303375 
	C153.639130,183.275803 147.763474,200.181091 152.159439,215.642761 
	C156.114609,229.554047 170.446213,240.849731 184.479553,240.992279 
	C193.138672,241.080246 201.802155,241.120071 210.458328,240.933411 
	C213.888824,240.859436 215.154892,241.941467 215.067886,245.477280 
	C214.859039,253.965637 215.011688,262.462585 214.995087,270.956024 
	C214.956268,290.824066 231.838638,306.709991 252.276627,305.783569 
	C269.746124,304.991730 281.998566,294.935181 286.369598,277.760315 
	C287.408173,273.679596 287.721771,268.017426 285.656128,264.854065 
	C282.095642,259.401489 276.406952,255.338638 271.002075,250.102371 
	C271.002075,256.832245 271.117218,262.943054 270.971130,269.047668 
	C270.811188,275.733124 267.856110,281.253204 262.547882,285.110779 
	C252.210266,292.623260 239.897751,289.132202 232.761017,276.507263 
	C232.510162,276.290680 232.259308,276.074097 231.938354,275.473114 
	C231.938354,275.473114 231.816208,275.101959 231.836472,274.243378 
M231.142395,357.076324 
	C232.906219,357.445282 234.670029,357.814240 236.560242,358.209656 
	C236.560242,348.341583 236.560242,339.298889 236.560242,330.301331 
	C234.563766,330.301331 232.974289,330.301331 230.823502,330.301331 
	C230.823502,333.975250 230.823502,337.370026 230.823502,340.753052 
	C225.992157,340.753052 221.731491,340.753052 216.895691,340.753052 
	C216.895691,337.092346 216.895691,333.695770 216.895691,330.246582 
	C214.712036,330.246582 213.116806,330.246582 211.313599,330.246582 
	C211.313599,339.550568 211.313599,348.608673 211.313599,357.595032 
	C213.341980,357.595032 215.049622,357.595032 217.159592,357.595032 
	C217.159592,353.612762 217.159592,350.018158 217.159592,346.364655 
	C221.956177,346.364655 226.335037,346.364655 231.024170,346.364655 
	C231.024170,349.866577 231.024170,353.011169 231.142395,357.076324 
M260.818970,330.402039 
	C256.327789,330.297668 251.732605,329.561646 247.376724,330.278900 
	C243.549210,330.909241 241.643921,334.016541 241.883743,338.381439 
	C242.101959,342.352814 243.906418,344.388733 247.576843,345.263580 
	C249.627823,345.752441 251.791687,346.144714 253.608322,347.128021 
	C255.255890,348.019775 256.501770,349.653656 257.924744,350.960388 
	C256.026184,351.878998 254.075241,353.642212 252.240738,353.528381 
	C249.081772,353.332367 245.995331,351.967621 242.890686,351.096771 
	C240.326263,353.781769 240.218460,356.406525 244.014618,357.373627 
	C247.916519,358.367706 252.153641,359.077667 256.091461,358.614471 
	C260.191101,358.132294 263.891998,355.893463 264.008850,350.737335 
	C264.119598,345.849243 262.065521,343.527649 256.423828,342.030731 
	C254.386887,341.490204 252.304794,340.963623 250.423233,340.057220 
	C249.423294,339.575470 248.186905,338.283569 248.203491,337.378326 
	C248.218475,336.560822 249.770401,335.125671 250.685013,335.092896 
	C253.308762,334.999023 255.949478,335.597168 258.590881,335.675842 
	C259.712006,335.709259 261.571930,335.404358 261.821167,334.760040 
	C262.239929,333.677551 261.639496,332.200867 260.818970,330.402039 
M271.113953,345.363342 
	C272.403412,348.187500 273.683807,351.015869 274.984833,353.834686 
	C276.408264,356.918701 278.344330,359.098999 282.453766,357.615570 
	C286.564789,348.816040 290.796661,339.757812 295.084320,330.580200 
	C290.669739,329.137695 288.325012,330.249847 286.888092,334.494812 
	C285.180634,339.539001 282.708405,344.324310 280.087433,350.320190 
	C276.782501,342.709778 274.078186,336.482361 271.359680,330.222290 
	C269.336639,330.222290 267.431152,330.222290 264.956360,330.222290 
	C267.056274,335.284546 268.991943,339.950897 271.113953,345.363342 
z"/>
<path fill="#146D59" opacity="1.000000" stroke="none" 
	d="
M232.825912,277.007172 
	C239.897751,289.132202 252.210266,292.623260 262.547882,285.110779 
	C267.856110,281.253204 270.811188,275.733124 270.971130,269.047668 
	C271.117218,262.943054 271.002075,256.832245 271.002075,250.102371 
	C276.406952,255.338638 282.095642,259.401489 285.656128,264.854065 
	C287.721771,268.017426 287.408173,273.679596 286.369598,277.760315 
	C281.998566,294.935181 269.746124,304.991730 252.276627,305.783569 
	C231.838638,306.709991 214.956268,290.824066 214.995087,270.956024 
	C215.011688,262.462585 214.859039,253.965637 215.067886,245.477280 
	C215.154892,241.941467 213.888824,240.859436 210.458328,240.933411 
	C201.802155,241.120071 193.138672,241.080246 184.479553,240.992279 
	C170.446213,240.849731 156.114609,229.554047 152.159439,215.642761 
	C147.763474,200.181091 153.639130,183.275803 166.263718,175.303375 
	C169.641571,179.244568 173.034790,183.203705 175.997482,186.660492 
	C173.358292,190.870575 169.739456,194.784698 168.239471,199.389084 
	C163.952042,212.549957 174.122833,224.788025 189.036819,224.968384 
	C202.358047,225.129501 215.682251,225.043640 229.483032,225.575470 
	C229.976395,240.291763 229.917068,254.500275 230.087692,268.705994 
	C230.113388,270.844604 231.213226,272.970306 231.816208,275.101959 
	C231.816208,275.101959 231.938354,275.473114 232.093842,275.868042 
	C232.421066,276.526917 232.613251,276.774963 232.825912,277.007172 
z"/>
<path fill="#0AC182" opacity="1.000000" stroke="none" 
	d="
M216.038025,179.891388 
	C216.038025,179.891388 216.079269,179.547150 216.318970,179.172668 
	C216.721558,178.475159 216.884430,178.152115 217.047302,177.829086 
	C220.933762,167.243713 219.797058,156.626526 216.136871,146.428406 
	C212.320297,135.794617 219.465714,120.720825 226.521606,114.562386 
	C234.508286,107.591576 243.353821,104.144196 253.564484,105.170570 
	C262.662628,106.085114 271.353943,109.391617 277.553040,116.382675 
	C283.112152,122.651985 287.186340,130.000809 287.045380,138.950806 
	C286.917145,147.094666 286.966888,155.242599 287.054321,163.387497 
	C287.070648,164.909424 287.636353,166.425476 288.755249,168.234390 
	C299.427551,168.679565 309.293152,168.834579 319.158783,168.989594 
	C335.090393,169.094376 350.269897,185.110138 350.889771,200.595490 
	C351.112549,206.161133 350.168945,211.773499 349.785828,216.981949 
	C344.272858,213.468475 339.598236,210.489304 334.610870,207.310776 
	C336.139008,200.144272 332.099487,192.241730 322.865723,186.225861 
	C321.201324,185.477615 320.008789,185.227646 318.816254,184.977661 
	C318.816254,184.977661 318.435791,184.960464 317.865845,184.741119 
	C309.176819,184.348907 301.057678,184.176056 292.938568,184.003204 
	C292.938568,184.003204 293.021973,183.980301 292.745605,183.831116 
	C291.588043,183.441696 290.706818,183.201447 289.825592,182.961197 
	C289.825592,182.961197 289.479797,182.952591 289.000610,182.740112 
	C287.012207,182.733246 285.503052,182.938843 283.993866,183.144455 
	C282.952423,183.424377 281.910950,183.704315 280.070862,183.969284 
	C272.108337,183.854263 272.020569,183.779922 272.003326,176.684021 
	C271.986755,169.867920 272.110718,163.049484 271.969635,156.236282 
	C271.849823,150.449905 271.440216,144.669525 271.158844,138.886490 
	C268.981903,134.953720 267.364868,130.549881 264.525208,127.174683 
	C255.225647,116.121231 236.264862,121.382530 232.633987,134.695786 
	C232.297287,135.930359 231.671616,137.086105 230.850830,138.994446 
	C230.350830,141.850967 230.043747,143.990784 230.032471,146.132141 
	C229.976532,156.751083 229.857819,167.373108 230.059143,177.988388 
	C230.145660,182.550949 228.375259,184.332169 223.890762,184.032730 
	C220.587769,183.812210 217.257004,184.007751 213.938614,184.017899 
	C213.938614,184.017899 213.993637,184.001816 214.122803,183.730774 
	C214.499817,182.623459 214.747681,181.787170 214.995560,180.950882 
	C214.995560,180.950882 215.008865,181.014694 215.185699,180.856094 
	C215.587708,180.428802 215.812866,180.160095 216.038025,179.891388 
z"/>
<path fill="#176C59" opacity="1.000000" stroke="none" 
	d="
M274.153564,206.978394 
	C274.153564,206.978394 274.052246,206.564789 274.025085,205.900696 
	C274.322662,201.457260 274.647369,197.677917 274.972107,193.898590 
	C281.709534,185.989807 288.168304,184.707336 295.563751,189.809875 
	C300.397095,193.144653 301.917023,198.628799 299.992310,208.046112 
	C305.887360,209.028992 311.755859,210.186768 317.675873,210.938934 
	C322.594727,211.563904 327.688446,211.167145 332.504425,212.177628 
	C344.769501,214.751068 348.093506,217.941757 344.659973,231.645828 
	C341.507416,244.228607 334.452942,255.336182 323.763336,263.448456 
	C314.250885,270.667358 300.228943,270.192169 290.433472,262.928192 
	C278.091949,253.776184 269.933960,241.439987 263.008911,228.075623 
	C261.716248,225.580933 260.492798,223.009705 258.872864,220.733185 
	C254.602890,214.732391 249.371124,212.112061 241.399536,213.480331 
	C228.718918,215.656876 216.421890,214.218842 207.164429,203.610229 
	C203.685303,199.623306 200.523468,195.358917 197.029755,191.385651 
	C195.824188,190.014587 193.982849,188.112686 192.547913,188.207565 
	C182.125137,188.896652 176.723038,181.656555 171.073898,174.967499 
	C168.537613,171.964294 166.401428,168.500076 164.688126,164.953094 
	C161.951630,159.287872 160.350281,153.425369 164.616821,147.560028 
	C165.442657,146.424713 165.685059,144.816116 166.024506,143.385010 
	C167.041336,139.098068 169.575562,137.028381 174.098251,136.955719 
	C177.984360,136.893295 179.783859,139.520721 180.121735,142.313690 
	C180.589615,146.181625 178.414124,149.321838 174.491440,150.693466 
	C168.547134,152.771942 167.112518,154.419525 170.245911,159.705765 
	C174.411789,166.733887 179.416718,173.532227 185.243149,179.218048 
	C189.394638,183.269333 195.767593,181.927368 200.729065,179.429382 
	C205.508606,177.023041 209.091644,173.380890 209.109863,167.051270 
	C209.132736,159.105515 207.882263,151.528275 204.636444,144.347855 
	C202.297409,139.173431 200.513351,138.952896 195.490616,141.547058 
	C192.151947,143.271423 188.267929,144.238068 185.515839,140.645706 
	C183.282135,137.730011 181.558044,134.223328 184.896179,130.781479 
	C188.126633,127.450645 191.769424,127.415260 195.995712,130.504227 
	C196.530762,130.895309 197.002243,131.573715 197.581009,131.675217 
	C211.241257,134.070465 212.797882,145.271088 214.822144,155.817764 
	C215.761307,160.710953 215.701004,165.835709 215.676468,170.853439 
	C215.667374,172.712326 214.852142,174.856491 213.725235,176.362076 
	C211.163727,179.784286 207.904587,182.814438 210.927902,187.569962 
	C211.075699,187.802429 210.947952,188.224380 210.915421,188.554840 
	C210.699036,190.752716 206.708923,192.235855 209.596024,194.994690 
	C213.132111,198.373642 216.382706,202.254074 220.444870,204.834305 
	C227.285065,209.179062 235.169846,208.164566 242.635880,206.796417 
	C252.041489,205.072845 258.927185,208.633881 263.881317,216.072342 
	C268.185120,222.534378 271.531891,229.626205 275.671265,236.207199 
	C281.611725,245.651764 288.444946,254.215652 298.761810,259.505981 
	C308.499054,264.499115 316.548035,261.412933 323.657257,254.750961 
	C330.933777,247.932205 335.317657,239.065613 338.524323,229.769836 
	C340.887299,222.919754 338.255005,219.856293 331.299194,218.909805 
	C319.728180,217.335297 307.768463,218.195618 296.655853,213.467804 
	C295.373657,212.922302 293.494629,213.779510 291.056458,214.007782 
	C287.790558,214.023178 285.360565,214.017151 282.930542,214.011108 
	C282.504333,213.977936 282.078094,213.944763 281.155090,213.711975 
	C280.409882,213.323639 280.146179,213.159515 279.867126,213.019989 
	C279.578461,212.931656 279.346405,212.764679 278.975769,212.004288 
	C277.815552,210.664749 276.850525,209.839966 275.885529,209.015198 
	C275.589264,208.957047 275.350281,208.807388 274.950592,208.162933 
	C274.558868,207.484909 274.365875,207.224503 274.153564,206.978394 
z"/>
<path fill="#0FBE83" opacity="1.000000" stroke="none" 
	d="
M231.083282,356.616028 
	C231.024170,353.011169 231.024170,349.866577 231.024170,346.364655 
	C226.335037,346.364655 221.956177,346.364655 217.159592,346.364655 
	C217.159592,350.018158 217.159592,353.612762 217.159592,357.595032 
	C215.049622,357.595032 213.341980,357.595032 211.313599,357.595032 
	C211.313599,348.608673 211.313599,339.550568 211.313599,330.246582 
	C213.116806,330.246582 214.712036,330.246582 216.895691,330.246582 
	C216.895691,333.695770 216.895691,337.092346 216.895691,340.753052 
	C221.731491,340.753052 225.992157,340.753052 230.823502,340.753052 
	C230.823502,337.370026 230.823502,333.975250 230.823502,330.301331 
	C232.974289,330.301331 234.563766,330.301331 236.560242,330.301331 
	C236.560242,339.298889 236.560242,348.341583 236.560242,358.209656 
	C234.670029,357.814240 232.906219,357.445282 231.083282,356.616028 
z"/>
<path fill="#17BB83" opacity="1.000000" stroke="none" 
	d="
M261.143402,330.646027 
	C261.639496,332.200867 262.239929,333.677551 261.821167,334.760040 
	C261.571930,335.404358 259.712006,335.709259 258.590881,335.675842 
	C255.949478,335.597168 253.308762,334.999023 250.685013,335.092896 
	C249.770401,335.125671 248.218475,336.560822 248.203491,337.378326 
	C248.186905,338.283569 249.423294,339.575470 250.423233,340.057220 
	C252.304794,340.963623 254.386887,341.490204 256.423828,342.030731 
	C262.065521,343.527649 264.119598,345.849243 264.008850,350.737335 
	C263.891998,355.893463 260.191101,358.132294 256.091461,358.614471 
	C252.153641,359.077667 247.916519,358.367706 244.014618,357.373627 
	C240.218460,356.406525 240.326263,353.781769 242.890686,351.096771 
	C245.995331,351.967621 249.081772,353.332367 252.240738,353.528381 
	C254.075241,353.642212 256.026184,351.878998 257.924744,350.960388 
	C256.501770,349.653656 255.255890,348.019775 253.608322,347.128021 
	C251.791687,346.144714 249.627823,345.752441 247.576843,345.263580 
	C243.906418,344.388733 242.101959,342.352814 241.883743,338.381439 
	C241.643921,334.016541 243.549210,330.909241 247.376724,330.278900 
	C251.732605,329.561646 256.327789,330.297668 261.143402,330.646027 
z"/>
<path fill="#11BD83" opacity="1.000000" stroke="none" 
	d="
M271.020813,344.990295 
	C268.991943,339.950897 267.056274,335.284546 264.956360,330.222290 
	C267.431152,330.222290 269.336639,330.222290 271.359680,330.222290 
	C274.078186,336.482361 276.782501,342.709778 280.087433,350.320190 
	C282.708405,344.324310 285.180634,339.539001 286.888092,334.494812 
	C288.325012,330.249847 290.669739,329.137695 295.084320,330.580200 
	C290.796661,339.757812 286.564789,348.816040 282.453766,357.615570 
	C278.344330,359.098999 276.408264,356.918701 274.984833,353.834686 
	C273.683807,351.015869 272.403412,348.187500 271.020813,344.990295 
z"/>
<path fill="#2DB385" opacity="1.000000" stroke="none" 
	d="
M214.180023,184.380676 
	C217.257004,184.007751 220.587769,183.812210 223.890762,184.032730 
	C228.375259,184.332169 230.145660,182.550949 230.059143,177.988388 
	C229.857819,167.373108 229.976532,156.751083 230.032471,146.132141 
	C230.043747,143.990784 230.350830,141.850967 230.675873,139.320938 
	C230.830200,154.050415 230.830200,169.169388 230.830200,184.743454 
	C225.252975,184.743454 219.837204,184.743454 214.180023,184.380676 
z"/>
<path fill="#33B88B" opacity="1.000000" stroke="none" 
	d="
M271.095398,139.363495 
	C271.440216,144.669525 271.849823,150.449905 271.969635,156.236282 
	C272.110718,163.049484 271.986755,169.867920 272.003326,176.684021 
	C272.020569,183.779922 272.108337,183.854263 279.726288,183.957245 
	C277.374054,184.433884 274.567749,184.907608 271.031921,185.504486 
	C271.031921,169.785110 271.031921,154.812805 271.095398,139.363495 
z"/>
<path fill="#276758" opacity="1.000000" stroke="none" 
	d="
M231.826340,274.672668 
	C231.213226,272.970306 230.113388,270.844604 230.087692,268.705994 
	C229.917068,254.500275 229.976395,240.291763 229.944641,225.627075 
	C230.288254,226.855621 230.948471,228.539200 230.960129,230.227249 
	C231.046829,242.793549 230.966721,255.360962 231.040771,267.927429 
	C231.053177,270.034241 231.558762,272.138123 231.826340,274.672668 
z"/>
<path fill="#44AD8C" opacity="1.000000" stroke="none" 
	d="
M318.889374,168.639862 
	C309.293152,168.834579 299.427551,168.679565 289.160034,168.350510 
	C298.712097,168.214340 308.666016,168.252228 318.889374,168.639862 
z"/>
<path fill="#2FB588" opacity="1.000000" stroke="none" 
	d="
M293.205994,184.344757 
	C301.057678,184.176056 309.176819,184.348907 317.685699,184.679474 
	C309.874786,184.786865 301.674072,184.736572 293.205994,184.344757 
z"/>
<path fill="#266558" opacity="1.000000" stroke="none" 
	d="
M274.669861,194.145218 
	C274.647369,197.677917 274.322662,201.457260 273.991455,205.690460 
	C274.112488,202.226822 274.240051,198.309341 274.669861,194.145218 
z"/>
<path fill="#266558" opacity="1.000000" stroke="none" 
	d="
M283.207275,214.296234 
	C285.360565,214.017151 287.790558,214.023178 290.677948,214.032593 
	C288.584869,214.217773 286.034454,214.399567 283.207275,214.296234 
z"/>
<path fill="#266558" opacity="1.000000" stroke="none" 
	d="
M276.052673,209.302460 
	C276.850525,209.839966 277.815552,210.664749 278.883789,211.807220 
	C278.064636,211.279846 277.142242,210.434799 276.052673,209.302460 
z"/>
<path fill="#2FB588" opacity="1.000000" stroke="none" 
	d="
M284.419128,183.091583 
	C285.503052,182.938843 287.012207,182.733246 288.836975,182.684052 
	C287.716461,182.906555 286.280426,182.972641 284.419128,183.091583 
z"/>
<path fill="#2DB385" opacity="1.000000" stroke="none" 
	d="
M214.707031,181.065598 
	C214.747681,181.787170 214.499817,182.623459 214.107422,183.754974 
	C214.114761,183.093567 214.266632,182.136932 214.707031,181.065598 
z"/>
<path fill="#2FB588" opacity="1.000000" stroke="none" 
	d="
M319.030396,185.296738 
	C320.008789,185.227646 321.201324,185.477615 322.695984,185.937256 
	C321.746918,185.969864 320.495728,185.792847 319.030396,185.296738 
z"/>
<path fill="#2FB588" opacity="1.000000" stroke="none" 
	d="
M290.027222,183.263153 
	C290.706818,183.201447 291.588043,183.441696 292.757111,183.872818 
	C292.106232,183.897491 291.167542,183.731293 290.027222,183.263153 
z"/>
<path fill="#266558" opacity="1.000000" stroke="none" 
	d="
M274.175354,207.240143 
	C274.365875,207.224503 274.558868,207.484909 274.854645,207.970184 
	C274.716827,207.954468 274.456970,207.728180 274.175354,207.240143 
z"/>
<path fill="#276758" opacity="1.000000" stroke="none" 
	d="
M232.793457,276.757202 
	C232.613251,276.774963 232.421066,276.526917 232.128906,276.060242 
	C232.259308,276.074097 232.510162,276.290680 232.793457,276.757202 
z"/>
<path fill="#266558" opacity="1.000000" stroke="none" 
	d="
M279.996399,213.234955 
	C280.146179,213.159515 280.409882,213.323639 280.838379,213.662064 
	C280.720825,213.691162 280.423248,213.570541 279.996399,213.234955 
z"/>
<path fill="#2DB385" opacity="1.000000" stroke="none" 
	d="
M215.788742,180.006744 
	C215.812866,180.160095 215.587708,180.428802 215.153137,180.857300 
	C215.142319,180.718781 215.340881,180.420441 215.788742,180.006744 
z"/>
<path fill="#2DB385" opacity="1.000000" stroke="none" 
	d="
M216.781281,177.975525 
	C216.884430,178.152115 216.721558,178.475159 216.391510,179.015228 
	C216.321320,178.862167 216.418289,178.492065 216.781281,177.975525 
z"/>
</svg>