<?xml version="1.0" encoding="UTF-8"?>
<svg version="1.1" xmlns="http://www.w3.org/2000/svg" width="500" height="500">
<path d="M0 0 C9.25990718 5.83280075 15.04808099 13.44976477 18 24 C18.16237778 26.78486623 18.23437565 29.46222484 18.1953125 32.2421875 C18.1924826 33.01055939 18.18965271 33.77893127 18.18673706 34.57058716 C18.17561311 37.00555521 18.1505236 39.44014462 18.125 41.875 C18.11496011 43.53384882 18.10583603 45.19270346 18.09765625 46.8515625 C18.07569937 50.90118579 18.04122406 54.95052887 18 59 C18.91177002 58.98428955 19.82354004 58.9685791 20.76293945 58.95239258 C24.19789501 58.9007735 27.63242887 58.86341485 31.06762695 58.83520508 C32.54458181 58.82026687 34.02149349 58.79990869 35.49829102 58.77368164 C49.92811276 58.52413233 61.71674264 60.16046371 72.6875 70.1875 C79.57897628 77.37860568 82.1389692 85.6494281 82.1875 95.375 C82.20167969 96.66148437 82.21585938 97.94796875 82.23046875 99.2734375 C82.00714141 102.88452711 81.31293032 105.64761667 80 109 C79.5875 108.60167969 79.175 108.20335937 78.75 107.79296875 C74.39728536 103.7997417 70.62970004 101.77780001 65 100 C65.061875 99.01 65.12375 98.02 65.1875 97 C65.13232947 91.52708384 63.88689089 87.07918551 60.16015625 82.97265625 C54.84551798 78.13306945 51.40723537 76.93355012 44.23828125 76.71875 C43.11873047 76.68136719 41.99917969 76.64398438 40.84570312 76.60546875 C39.67974609 76.57066406 38.51378906 76.53585938 37.3125 76.5 C24.41284839 76.10844228 24.41284839 76.10844228 18.91796875 75.40625 C15.43383966 75.04498437 14.17355464 75.18140792 11 76 C9.41788427 76.06548492 7.83329919 76.08578381 6.25 76.0625 C5.45078125 76.05347656 4.6515625 76.04445313 3.828125 76.03515625 C3.22484375 76.02355469 2.6215625 76.01195312 2 76 C1.99453156 75.14674889 1.99453156 75.14674889 1.98895264 74.27626038 C1.94693578 68.32170685 1.87745758 62.3679104 1.79248047 56.41381836 C1.76436538 54.19579667 1.74310409 51.97767654 1.72900391 49.75952148 C1.7074434 46.55922394 1.66072493 43.36009813 1.609375 40.16015625 C1.60814636 39.17854019 1.60691772 38.19692413 1.60565186 37.18556213 C1.46017395 30.24835367 0.30060416 23.81135966 -4.3760376 18.411026 C-8.28438498 14.89492176 -12.12564276 13.0375733 -17.390625 12.96875 C-24.3166888 13.38348436 -28.41418174 15.27052517 -33.25 20.375 C-37.36960814 26.55441221 -37.33085968 32.68512257 -37.4140625 39.8671875 C-37.43342865 40.90191193 -37.4527948 41.93663635 -37.4727478 43.00271606 C-37.53231842 46.29339467 -37.57883905 49.58410868 -37.625 52.875 C-37.66320048 55.11199405 -37.70225341 57.34897372 -37.7421875 59.5859375 C-37.83800156 65.05717425 -37.92211585 70.52847983 -38 76 C-43.61 76 -49.22 76 -55 76 C-55 72 -55 72 -53.02734375 68.828125 C-50.42853533 64.51857779 -50.42806781 60.68445218 -50.5625 55.75 C-50.5728125 54.90953125 -50.583125 54.0690625 -50.59375 53.203125 C-50.7397342 47.63855092 -51.61051925 42.775351 -53.3125 37.46484375 C-55.9008366 28.18506877 -53.40406076 20.28498723 -49 12 C-44.28498882 4.38952893 -36.40453775 -0.55224379 -28.0546875 -3.3046875 C-18.3597543 -5.51146258 -8.79782193 -4.68335182 0 0 Z " fill="#0AC181" transform="translate(268,108)"/>
<path d="M0 0 C3.62085065 1.20695022 4.3412852 2.46801781 6.5625 5.5 C8.831494 8.7783147 8.831494 8.7783147 12 11 C11 14 11 14 8.625 16.1875 C4.84873719 20.23349587 3.11748907 23.95938295 2.90234375 29.52734375 C3.32345057 36.35749096 5.36752346 40.43867148 10.3125 45.25 C16.67660207 49.39406647 23.38166907 49.32636939 30.74609375 49.4140625 C31.75720718 49.43342865 32.76832062 49.4527948 33.81007385 49.4727478 C37.01913182 49.5322199 40.22822628 49.57879916 43.4375 49.625 C45.62175988 49.66320957 47.80600517 49.70226302 49.99023438 49.7421875 C55.32669281 49.83789458 60.6632401 49.92303557 66 50 C66.00546844 50.87537415 66.00546844 50.87537415 66.01104736 51.76843262 C66.05301357 57.86880636 66.12245737 63.96843761 66.20751953 70.06835938 C66.2356616 72.34172116 66.25690961 74.61517955 66.27099609 76.88867188 C66.29251882 80.1658653 66.33921885 83.44190531 66.390625 86.71875 C66.39185364 87.72740112 66.39308228 88.73605225 66.39434814 89.77526855 C66.53521618 96.63621805 67.61756975 102.35297229 72.41143799 107.52185059 C77.13787241 111.71274973 81.46465737 113.52081506 87.81640625 113.3046875 C92.83240684 112.60478044 97.316563 110.98733537 100.64453125 107.05859375 C103.67139023 102.32203921 105.09813897 98.3195494 105.31640625 92.67578125 C105.35830078 91.64775391 105.40019531 90.61972656 105.44335938 89.56054688 C105.48267578 88.48869141 105.52199219 87.41683594 105.5625 86.3125 C105.62727539 84.68731445 105.62727539 84.68731445 105.69335938 83.02929688 C105.79946838 80.35299209 105.90152361 77.67659474 106 75 C106.66 75 107.32 75 108 75 C109.48046875 76.50390625 109.48046875 76.50390625 111.1875 78.5625 C113.59984564 81.47150503 116.00740474 83.81721969 118.9375 86.1875 C122.10005622 89.32863936 122.56588427 91.76872255 122.75 96.1875 C122.23056212 105.21533036 119.04353616 113.88680247 112.7109375 120.4765625 C104.74312707 127.57118823 94.9905229 131.8589619 84.11328125 131.2734375 C73.16407626 129.85671966 64.41524674 126.34357475 57.0859375 117.7578125 C51.82768221 110.27192196 49.52449384 103.17933045 49.70703125 94.125 C49.71127609 93.31506592 49.71552094 92.50513184 49.71989441 91.6706543 C49.73653056 89.11341439 49.77415228 86.55699696 49.8125 84 C49.8275664 82.25391773 49.84125136 80.50782295 49.85351562 78.76171875 C49.88638434 74.50750125 49.9380594 70.2538895 50 66 C48.49602661 66.0314209 48.49602661 66.0314209 46.96166992 66.06347656 C43.19147394 66.13664934 39.42133877 66.182076 35.65063477 66.21972656 C34.02813107 66.23966813 32.40569758 66.26683174 30.78344727 66.30175781 C17.54380173 66.57936987 6.0968047 65.58641677 -4 56 C-11.63040935 47.78535977 -14.59906314 39.03582321 -14.47705078 27.90673828 C-13.98581784 16.22538542 -8.22933623 7.85527549 0 0 Z " fill="#126D58" transform="translate(164,174)"/>
<path d="M0 0 C1.70116376 0.94011682 3.36504293 1.94895617 5 3 C5.63164062 3.24234375 6.26328125 3.4846875 6.9140625 3.734375 C12.4467098 5.9308567 14.61455767 8.67737613 16.96875 14.1015625 C20.57093621 24.22588889 23.52703321 36.14090985 19.6875 46.5625 C18 49 18 49 16.25 50.875 C14.75452889 53.41730089 14.99724887 54.21899565 15.4375 57.0625 C16 61 16 61 14 64 C19.34431133 72.06540758 24.34719421 75.86031085 34 78 C38.16620179 78.03015452 42.29799572 77.58991974 46.44140625 77.18945312 C53.42060196 76.6604023 59.38916284 77.49002783 65.2421875 81.55859375 C70.54713022 87.66308525 74.14303815 94.51522159 77.92651367 101.61401367 C81.3601811 108.00599106 85.04349091 113.66536548 90 119 C90.65613281 119.73476562 91.31226563 120.46953125 91.98828125 121.2265625 C97.7336549 127.36239843 104.05936929 131.47993361 112.5625 132.375 C118.85435157 132.25934096 124.1386935 129.37564507 128.91015625 125.4140625 C135.43595067 118.60583051 143.0355656 106.49770043 143.25 96.9375 C143.1675 95.638125 143.085 94.33875 143 93 C139.62522814 90.75015209 137.92078856 90.60430945 133.93359375 90.25390625 C132.72509766 90.13853516 131.51660156 90.02316406 130.27148438 89.90429688 C127.74296801 89.67888151 125.21432416 89.45489109 122.68554688 89.23242188 C116.16239929 88.60738762 110.18076728 87.75071876 103.98510742 85.57080078 C101.10598956 84.74293489 98.87702857 85.31201491 96 86 C90.58403637 86.51528399 86.63071379 86.15730486 82 83 C78.73668694 79.47905697 77.71185268 76.69606784 77.5 72 C77.70448516 67.31094378 78.79603814 64.55033611 82 61 C85.67207763 57.85250489 89.03330055 57.47273485 93.71875 57.65234375 C97.65276419 58.25187673 99.80977407 59.5754283 103 62 C106.31516619 66.70539717 106.3640936 70.44757254 106 76 C105.67 76.99 105.34 77.98 105 79 C111.0726766 80.05905677 117.11608753 80.95143959 123.2578125 81.47265625 C124.17409424 81.55080566 125.09037598 81.62895508 126.03442383 81.70947266 C127.85116689 81.85859279 129.66874048 81.99799568 131.48706055 82.12646484 C137.53926534 82.62412474 143.8578921 83.32294441 148.65942383 87.41381836 C151.35832969 90.60718776 151.39877242 94.30512709 151.33984375 98.3515625 C149.80246941 110.33247973 141.12129446 125.26644498 131.71484375 132.83984375 C124.78507232 137.95094213 118.78769294 140.74471974 110 140 C96.61696066 137.35011367 86.56350315 128.67444448 78.68359375 117.8046875 C75.41852605 112.91625748 72.46177782 107.86291356 69.61328125 102.72265625 C69.21761963 102.00867676 68.82195801 101.29469727 68.41430664 100.55908203 C67.65974376 99.1841289 66.91479015 97.80384081 66.18139648 96.41748047 C63.46167432 91.39655308 60.65448221 86.8848274 55 85 C53.12399934 84.96344643 51.24658436 84.98596341 49.37109375 85.04296875 C48.25283203 85.06423828 47.13457031 85.08550781 45.98242188 85.10742188 C43.6461733 85.16019664 41.31016116 85.22501438 38.97460938 85.30273438 C27.66678027 85.47729777 20.08741137 82.78060857 11.83203125 75.03125 C9.62772727 72.58724559 8.40777006 69.95631712 7 67 C6.154375 66.67 5.30875 66.34 4.4375 66 C2 65 2 65 0.6875 61.875 C0.460625 60.92625 0.23375 59.9775 0 59 C-0.56847656 59.04640625 -1.13695312 59.0928125 -1.72265625 59.140625 C-8.61776035 59.46293371 -12.74940102 57.74652995 -17.96484375 53.33984375 C-25.56202692 46.23844605 -32.36498546 37.11216281 -33.3125 26.5 C-32.96476814 22.60540322 -31.82005797 20.43010925 -30 17 C-29.63521989 15.5911029 -29.30266147 14.17353489 -29 12.75 C-28 9 -28 9 -25 7 C-21.5625 6.5625 -21.5625 6.5625 -18 7 C-15.5 9.0625 -15.5 9.0625 -14 12 C-14 15.8137751 -14.15014929 18.02424548 -16.6875 20.9375 C-19.59086906 22.27148038 -21.84130576 22.21536552 -25 22 C-25.87410838 30.04179708 -22.50045444 35.73927225 -17.6875 42.015625 C-13.09689561 47.36199962 -10.13922662 50.66541484 -3 52 C2.59978452 51.77035584 7.01122647 49.98877353 11 46 C14.84106425 40.23840362 13.5353737 32.20490831 12.4296875 25.5859375 C11.24163836 20.54610801 9.9898928 16.29049617 7 12 C4.42900598 10.65310085 4.42900598 10.65310085 2 10 C1.67 10.99 1.34 11.98 1 13 C-2.09173752 14.54586876 -4.59429552 14.29359521 -8 14 C-10.4375 12.375 -10.4375 12.375 -12 10 C-12.5 7 -12.5 7 -12 4 C-8.15877875 -0.73750621 -5.86913538 -1.38097303 0 0 Z " fill="#176B58" transform="translate(194,128)"/>
<path d="M0 0 C1.98 0 3.96 0 6 0 C6 3.63 6 7.26 6 11 C10.62 11 15.24 11 20 11 C20 7.37 20 3.74 20 0 C21.98 0 23.96 0 26 0 C26 9.24 26 18.48 26 28 C24.02 28 22.04 28 20 28 C20 24.04 20 20.08 20 16 C15.38 16 10.76 16 6 16 C6 19.96 6 23.92 6 28 C4.02 28 2.04 28 0 28 C0 18.76 0 9.52 0 0 Z " fill="#0FBE83" transform="translate(210,329)"/>
<path d="M0 0 C1.65 0 3.3 0 5 0 C5 13.53 5 27.06 5 41 C1.37 41 -2.26 41 -6 41 C-5.01 40.505 -5.01 40.505 -4 40 C-4 39.34 -4 38.68 -4 38 C-4.99 38 -5.98 38 -7 38 C-7 36.68 -7 35.36 -7 34 C-6.34 34 -5.68 34 -5 34 C-5 24.76 -5 15.52 -5 6 C-4.34 6.33 -3.68 6.66 -3 7 C-2.01 4.69 -1.02 2.38 0 0 Z " fill="#06C381" transform="translate(224,142)"/>
<path d="M0 0 C-0.375 2.4375 -0.375 2.4375 -1 5 C-3.95453988 6.47726994 -5.96693135 5.29026352 -9.02734375 4.375 C-11.20028368 3.7957417 -11.20028368 3.7957417 -14 5 C-14 5.99 -14 6.98 -14 8 C-13.08476562 8.32613281 -12.16953125 8.65226562 -11.2265625 8.98828125 C-10.03804687 9.42527344 -8.84953125 9.86226563 -7.625 10.3125 C-6.44164062 10.74175781 -5.25828125 11.17101562 -4.0390625 11.61328125 C-1 13 -1 13 1 16 C1.66812946 22.12452002 1.66812946 22.12452002 -0.8125 25.375 C-5.16519043 28.60842718 -9.7880653 28.51688609 -15 28 C-17.52125603 27.21009829 -19.63416261 26.20808718 -22 25 C-21.67 23.35 -21.34 21.7 -21 20 C-20.16855469 20.15597656 -19.33710938 20.31195313 -18.48046875 20.47265625 C-17.39378906 20.66730469 -16.30710938 20.86195313 -15.1875 21.0625 C-14.10855469 21.25972656 -13.02960938 21.45695312 -11.91796875 21.66015625 C-8.94098219 22.21580075 -8.94098219 22.21580075 -6 21 C-6 20.01 -6 19.02 -6 18 C-7.24716797 17.61908203 -7.24716797 17.61908203 -8.51953125 17.23046875 C-9.60621094 16.88628906 -10.69289062 16.54210937 -11.8125 16.1875 C-13.43091797 15.68283203 -13.43091797 15.68283203 -15.08203125 15.16796875 C-17.86061249 14.05579232 -19.28763079 13.41608258 -21 11 C-21.77333333 4.04 -21.77333333 4.04 -19.1875 0.5625 C-13.30787626 -3.63723124 -6.33969218 -2.53587687 0 0 Z " fill="#16BA83" transform="translate(262,330)"/>
<path d="M0 0 C2.31 0 4.62 0 7 0 C8.17094005 2.7899439 9.33690927 5.58178597 10.5 8.375 C10.83386719 9.1690625 11.16773438 9.963125 11.51171875 10.78125 C11.82753906 11.54179687 12.14335937 12.30234375 12.46875 13.0859375 C12.76201172 13.7876709 13.05527344 14.4894043 13.35742188 15.21240234 C14 17 14 17 14 19 C14.66 19 15.32 19 16 19 C16.23783203 18.19949219 16.23783203 18.19949219 16.48046875 17.3828125 C18.40053915 11.25131697 21.00234357 5.67540486 24 0 C25.98 0 27.96 0 30 0 C28.01062264 6.36144738 25.61912841 12.42874153 22.875 18.5 C22.51535156 19.30953125 22.15570313 20.1190625 21.78515625 20.953125 C19.1381079 26.8618921 19.1381079 26.8618921 18 28 C15.66702567 28.04092937 13.33294775 28.04241723 11 28 C9.157695 23.89980233 7.32770545 19.79422392 5.5 15.6875 C4.97535156 14.52025391 4.45070313 13.35300781 3.91015625 12.15039062 C3.41386719 11.03212891 2.91757812 9.91386719 2.40625 8.76171875 C1.94541016 7.73006592 1.48457031 6.69841309 1.00976562 5.63549805 C0 3 0 3 0 0 Z " fill="#11BD83" transform="translate(264,329)"/>
<path d="M0 0 C0.33 0 0.66 0 1 0 C1 15.51 1 31.02 1 47 C-4.61 47 -10.22 47 -16 47 C-16 43 -16 43 -14 40.75 C-13.34 40.1725 -12.68 39.595 -12 39 C-12 40.32 -12 41.64 -12 43 C-11.01 43 -10.02 43 -9 43 C-9 43.66 -9 44.32 -9 45 C-6.03 45.33 -3.06 45.66 0 46 C0 30.82 0 15.64 0 0 Z " fill="#2DB485" transform="translate(229,137)"/>
<path d="M0 0 C0.33 0 0.66 0 1 0 C0.96519531 1.17175781 0.93039063 2.34351563 0.89453125 3.55078125 C0.38342506 16.62001337 0.38342506 16.62001337 4 29 C4.99 29.33 5.98 29.66 7 30 C7.33 30.99 7.66 31.98 8 33 C8.99 33.33 9.98 33.66 11 34 C11.33333333 35.33333333 11.66666667 36.66666667 12 38 C12.99 38.33 13.98 38.66 15 39 C16.1875 41.0625 16.1875 41.0625 17 43 C9.70839079 40.5905987 5.00066117 34.37560184 1.5625 27.6875 C-0.88010601 22.46273288 -1.1561521 17.73198598 -1.125 12 C-1.12886719 11.2884375 -1.13273438 10.576875 -1.13671875 9.84375 C-1.13033978 6.42461983 -1.07200732 3.26706994 0 0 Z " fill="#236656" transform="translate(151,192)"/>
<path d="M0 0 C0.66 0 1.32 0 2 0 C3.5078125 1.75 3.5078125 1.75 5.125 4 C5.66382813 4.7425 6.20265625 5.485 6.7578125 6.25 C7.16773438 6.8275 7.57765625 7.405 8 8 C7.01 8 6.02 8 5 8 C4.34 7.34 3.68 6.68 3 6 C2.67 6 2.34 6 2 6 C1.96261719 7.29035156 1.92523438 8.58070313 1.88671875 9.91015625 C1.82102298 11.62763149 1.7545769 13.34507815 1.6875 15.0625 C1.66494141 15.91005859 1.64238281 16.75761719 1.61914062 17.63085938 C1.38669931 23.10379584 0.60301479 27.15124695 -2 32 C-4.1875 33.4375 -4.1875 33.4375 -6 34 C-5.731875 33.484375 -5.46375 32.96875 -5.1875 32.4375 C-4.795625 31.633125 -4.40375 30.82875 -4 30 C-3.4946875 29.0409375 -2.989375 28.081875 -2.46875 27.09375 C-0.27458097 21.94896394 -0.43230595 16.57699667 -0.3125 11.0625 C-0.27833984 9.99708984 -0.24417969 8.93167969 -0.20898438 7.83398438 C-0.12701774 5.22276154 -0.05770113 2.61185279 0 0 Z " fill="#226656" transform="translate(270,249)"/>
<path d="M0 0 C0.66 0.33 1.32 0.66 2 1 C-0.75 5.875 -0.75 5.875 -3 7 C-3 7.99 -3 8.98 -3 10 C-4.66666667 10 -6.33333333 10 -8 10 C-7.67 10.99 -7.34 11.98 -7 13 C-8.28965176 14.37562854 -9.62689293 15.70766393 -11 17 C-11.66 17 -12.32 17 -13 17 C-10.95198064 9.18028971 -6.10608474 4.828067 0 0 Z " fill="#1BB883" transform="translate(230,109)"/>
<path d="M0 0 C3.73639216 1.24546405 4.18756513 2.63404953 6 6 C4.02 6.33 2.04 6.66 0 7 C-0.33 6.34 -0.66 5.68 -1 5 C-3.31 6.65 -5.62 8.3 -8 10 C-6.34908222 5.70761377 -3.26245434 3.1206085 0 0 Z " fill="#1D6857" transform="translate(164,174)"/>
<path d="M0 0 C0.495 0.309375 0.99 0.61875 1.5 0.9375 C4.97986781 2.41644382 8.24028509 2.62402851 12 3 C12 3.66 12 4.32 12 5 C12.66 5.33 13.32 5.66 14 6 C10.02840314 7.08056059 7.57446843 6.85815614 3.6875 5.5625 C2.80449219 5.27503906 1.92148438 4.98757813 1.01171875 4.69140625 C0.34785156 4.46324219 -0.31601563 4.23507812 -1 4 C-0.67 2.68 -0.34 1.36 0 0 Z " fill="#08C181" transform="translate(246,339)"/>
<path d="M0 0 C0.33 1.32 0.66 2.64 1 4 C1.66 4 2.32 4 3 4 C3.66 4 4.32 4 5 4 C3.25 9.75 3.25 9.75 1 12 C0.34 10.68 -0.32 9.36 -1 8 C-1.66 9.98 -2.32 11.96 -3 14 C-3.66 14 -4.32 14 -5 14 C-4.34580901 8.93001981 -2.1453591 4.58009223 0 0 Z " fill="#25B686" transform="translate(286,332)"/>
<path d="M0 0 C0 0.66 0 1.32 0 2 C3.24078125 2.94466756 6.27225655 3.19098828 9.640625 3.31640625 C10.71054687 3.35830078 11.78046875 3.40019531 12.8828125 3.44335938 C13.99398438 3.48267578 15.10515625 3.52199219 16.25 3.5625 C17.93996094 3.62727539 17.93996094 3.62727539 19.6640625 3.69335938 C22.44258954 3.79932015 25.22120391 3.90139142 28 4 C28 4.33 28 4.66 28 5 C24.0208966 5.05868218 20.04190647 5.0938239 16.0625 5.125 C14.94552734 5.14175781 13.82855469 5.15851563 12.67773438 5.17578125 C6.11022104 5.21430039 0.34660678 4.70947839 -6 3 C-2.25 0 -2.25 0 0 0 Z " fill="#2CB687" transform="translate(289,179)"/>
<path d="M0 0 C1 3 1 3 0.00390625 5.48046875 C-0.47175781 6.37378906 -0.94742187 7.26710938 -1.4375 8.1875 C-1.91058594 9.08855469 -2.38367188 9.98960937 -2.87109375 10.91796875 C-3.42990234 11.94857422 -3.42990234 11.94857422 -4 13 C-6.31 13 -8.62 13 -11 13 C-11.66 10.69 -12.32 8.38 -13 6 C-12.34 6 -11.68 6 -11 6 C-10.34 7.98 -9.68 9.96 -9 12 C-7.68 12 -6.36 12 -5 12 C-4.9175 11.319375 -4.835 10.63875 -4.75 9.9375 C-3.77667472 6.1253093 -2.04192545 3.35929671 0 0 Z " fill="#28B585" transform="translate(286,344)"/>
<path d="M0 0 C0 0.33 0 0.66 0 1 C-1.6396875 1.2165625 -1.6396875 1.2165625 -3.3125 1.4375 C-6.93122987 1.88288104 -6.93122987 1.88288104 -10 3 C-10.2502157 5.91634129 -10.2502157 5.91634129 -10 9 C-9.01 9.66 -8.02 10.32 -7 11 C-7 11.66 -7 12.32 -7 13 C-6.01 13.33 -5.02 13.66 -4 14 C-6.875 13.6875 -6.875 13.6875 -10 13 C-12.32749345 9.50875983 -12.50299316 8.10777749 -12 4 C-8.09365643 -0.81782374 -5.93993588 -1.16216137 0 0 Z " fill="#266859" transform="translate(194,128)"/>
<path d="M0 0 C0.66 0.66 1.32 1.32 2 2 C1.7767253 8.14005413 1.7767253 8.14005413 -0.75 10.9375 C-3.35402628 12.16717908 -5.15312226 12.23723981 -8 12 C-7.34 11.67 -6.68 11.34 -6 11 C-5.27840576 9.35636866 -4.60648579 7.68949614 -4 6 C-2.35 6 -0.7 6 1 6 C0.67 4.02 0.34 2.04 0 0 Z " fill="#216857" transform="translate(178,138)"/>
<path d="M0 0 C1.65 0 3.3 0 5 0 C5 3.3 5 6.6 5 10 C4.34 9.67 3.68 9.34 3 9 C3 8.01 3 7.02 3 6 C2.01 6.33 1.02 6.66 0 7 C0 4.69 0 2.38 0 0 Z " fill="#10BB82" transform="translate(211,329)"/>
<path d="M0 0 C0.66 0 1.32 0 2 0 C1.649375 1.0725 1.29875 2.145 0.9375 3.25 C-0.50675445 8.86542289 0.2987147 14.31390298 1 20 C-0.32 19.34 -1.64 18.68 -3 18 C-2.67 13.05 -2.34 8.1 -2 3 C-1.34 3 -0.68 3 0 3 C0 2.01 0 1.02 0 0 Z " fill="#216857" transform="translate(167,193)"/>
<path d="M0 0 C0.33 0 0.66 0 1 0 C1.0543965 2.37531394 1.09385864 4.74935883 1.125 7.125 C1.14175781 7.79015625 1.15851563 8.4553125 1.17578125 9.140625 C1.21847278 13.49516056 0.59996217 16.95600114 -1 21 C-2.65 19.35 -4.3 17.7 -6 16 C-5.34 15.67 -4.68 15.34 -4 15 C-3.01 15.33 -2.02 15.66 -1 16 C-0.67 10.72 -0.34 5.44 0 0 Z " fill="#26B383" transform="translate(349,196)"/>
<path d="M0 0 C2.475 0.99 2.475 0.99 5 2 C5 3.32 5 4.64 5 6 C5.66 6 6.32 6 7 6 C7 6.99 7 7.98 7 9 C5.68 9 4.36 9 3 9 C3 8.01 3 7.02 3 6 C2.34 6 1.68 6 1 6 C0.67 4.02 0.34 2.04 0 0 Z " fill="#06C282" transform="translate(266,331)"/>
<path d="M0 0 C4.455 0.99 4.455 0.99 9 2 C9 2.33 9 2.66 9 3 C7.02 3 5.04 3 3 3 C3.33 4.32 3.66 5.64 4 7 C1.525 6.01 1.525 6.01 -1 5 C-0.67 3.35 -0.34 1.7 0 0 Z " fill="#25B283" transform="translate(241,350)"/>
<path d="M0 0 C0.33 0 0.66 0 1 0 C1.05422947 1.4370809 1.09289723 2.87475462 1.125 4.3125 C1.14820313 5.11300781 1.17140625 5.91351563 1.1953125 6.73828125 C1 9 1 9 -1 12 C-3.475 11.01 -3.475 11.01 -6 10 C-6.33 11.32 -6.66 12.64 -7 14 C-7.33 13.34 -7.66 12.68 -8 12 C-7.0625 9.375 -7.0625 9.375 -6 7 C-5.01 7.33 -4.02 7.66 -3 8 C-2.01 7.67 -1.02 7.34 0 7 C0 4.69 0 2.38 0 0 Z " fill="#236A59" transform="translate(344,220)"/>
<path d="M0 0 C2.64 0.66 5.28 1.32 8 2 C8.33 3.98 8.66 5.96 9 8 C5.18284914 6.44486447 2.77292558 4.00400272 0 1 C0 0.67 0 0.34 0 0 Z " fill="#1C6856" transform="translate(222,291)"/>
<path d="M0 0 C0.33 1.32 0.66 2.64 1 4 C1.99 4 2.98 4 4 4 C4 4.66 4 5.32 4 6 C1.29120665 7.35439668 -1.00933268 7.06501451 -4 7 C-2.79618552 4.50638429 -1.54571278 2.31856917 0 0 Z " fill="#1AB682" transform="translate(216,176)"/>
<path d="M0 0 C1.98 0.66 3.96 1.32 6 2 C6 3.98 6 5.96 6 8 C5.236875 7.195625 4.47375 6.39125 3.6875 5.5625 C1.20569102 2.83200976 1.20569102 2.83200976 -2 2 C-1.34 1.34 -0.68 0.68 0 0 Z " fill="#126E58" transform="translate(291,257)"/>
<path d="M0 0 C4.56454251 0.54339792 7.9728176 1.79463821 12 4 C9.07175348 4.97608217 7.04386724 5.08226668 4 5 C3.67 5.66 3.34 6.32 3 7 C3.33 5.68 3.66 4.36 4 3 C2.68 2.34 1.36 1.68 0 1 C0 0.67 0 0.34 0 0 Z " fill="#21B784" transform="translate(323,169)"/>
<path d="M0 0 C2.97 0.495 2.97 0.495 6 1 C5.625 3.4375 5.625 3.4375 5 6 C3 7 3 7 -0.125 6.0625 C-1.07375 5.711875 -2.0225 5.36125 -3 5 C-3 4.67 -3 4.34 -3 4 C0.465 3.505 0.465 3.505 4 3 C2.68 2.67 1.36 2.34 0 2 C0 1.34 0 0.68 0 0 Z " fill="#2DAD84" transform="translate(256,329)"/>
<path d="M0 0 C0.33 0 0.66 0 1 0 C0.6083965 5.95507399 -0.37124595 10.62819824 -3 16 C-4.31716987 12.04849038 -3.19076223 9.92251089 -2 6 C-2 5.01 -2 4.02 -2 3 C-1.34 3.33 -0.68 3.66 0 4 C0 2.68 0 1.36 0 0 Z " fill="#216655" transform="translate(285,271)"/>
<path d="M0 0 C0 0.99 0 1.98 0 3 C-5.53846154 2.38461538 -5.53846154 2.38461538 -7.875 0.4375 C-8.24625 -0.036875 -8.6175 -0.51125 -9 -1 C-5.23375329 -2.25541557 -3.62811066 -1.37061958 0 0 Z " fill="#1D6855" transform="translate(240,300)"/>
<path d="M0 0 C1.98 0 3.96 0 6 0 C6 0.99 6 1.98 6 3 C5.01 3 4.02 3 3 3 C2.67 4.32 2.34 5.64 2 7 C0.5393715 4.35261084 0 3.10551666 0 0 Z " fill="#19BE8C" transform="translate(264,329)"/>
<path d="M0 0 C2 1.125 2 1.125 4 3 C4.25 6.1875 4.25 6.1875 4 9 C3.67 9 3.34 9 3 9 C3 7.35 3 5.7 3 4 C2.01 3.67 1.02 3.34 0 3 C0 2.01 0 1.02 0 0 Z M-2 3 C-1.34 3 -0.68 3 0 3 C0.66 4.32 1.32 5.64 2 7 C1.01 6.67 0.02 6.34 -1 6 C-1.33 5.01 -1.66 4.02 -2 3 Z " fill="#196753" transform="translate(282,261)"/>
<path d="M0 0 C0.66 0 1.32 0 2 0 C2.33 1.98 2.66 3.96 3 6 C1.68 6.33 0.36 6.66 -1 7 C-0.67 4.69 -0.34 2.38 0 0 Z " fill="#106F58" transform="translate(166,159)"/>
<path d="M0 0 C4.455 2.97 4.455 2.97 9 6 C6 7 6 7 3 6 C3 5.34 3 4.68 3 4 C1.68 3.67 0.36 3.34 -1 3 C-0.67 2.01 -0.34 1.02 0 0 Z " fill="#1F6554" transform="translate(234,280)"/>
<path d="M0 0 C2.31 0.66 4.62 1.32 7 2 C7 3.65 7 5.3 7 7 C5.83040013 6.02433888 4.66438823 5.044375 3.5 4.0625 C2.8503125 3.51722656 2.200625 2.97195312 1.53125 2.41015625 C1.0259375 1.94480469 0.520625 1.47945312 0 1 C0 0.67 0 0.34 0 0 Z " fill="#206658" transform="translate(275,248)"/>
<path d="M0 0 C3.28330144 2.92348758 3.95866933 5.75457495 5 10 C4.01 9.67 3.02 9.34 2 9 C1.26953125 6.93359375 1.26953125 6.93359375 0.8125 4.4375 C0.65394531 3.61121094 0.49539063 2.78492187 0.33203125 1.93359375 C0.16767578 0.97646484 0.16767578 0.97646484 0 0 Z " fill="#21B684" transform="translate(280,121)"/>
<path d="M0 0 C1.65 0 3.3 0 5 0 C5 0.66 5 1.32 5 2 C4.01 2.33 3.02 2.66 2 3 C1.67 5.31 1.34 7.62 1 10 C0.67 10 0.34 10 0 10 C0 6.7 0 3.4 0 0 Z " fill="#1BBD86" transform="translate(230,329)"/>
<path d="M0 0 C1.5625 1.6875 1.5625 1.6875 3 4 C2.875 6.625 2.875 6.625 2 9 C1.01 9.66 0.02 10.32 -1 11 C-1 10.01 -1 9.02 -1 8 C-0.01 7.67 0.98 7.34 2 7 C1.67 6.401875 1.34 5.80375 1 5.1875 C0 3 0 3 0 0 Z " fill="#246B5B" transform="translate(207,181)"/>
<path d="M0 0 C3.375 -0.1875 3.375 -0.1875 7 0 C7.66 0.99 8.32 1.98 9 3 C5.7 2.67 2.4 2.34 -1 2 C-0.67 1.34 -0.34 0.68 0 0 Z " fill="#256856" transform="translate(169,135)"/>
<path d="M0 0 C1.98 0 3.96 0 6 0 C5.34 1.98 4.68 3.96 4 6 C3.67 6 3.34 6 3 6 C3 4.35 3 2.7 3 1 C1.02 1.99 1.02 1.99 -1 3 C-0.67 2.01 -0.34 1.02 0 0 Z " fill="#21B282" transform="translate(288,329)"/>
<path d="M0 0 C1.98 0.66 3.96 1.32 6 2 C5 4 5 4 2 6 C1.34 4.02 0.68 2.04 0 0 Z " fill="#1B6754" transform="translate(216,281)"/>
</svg>
